<?xml version="1.0" encoding="utf-8"?>
<!-- Generator: Adobe Illustrator 21.0.0, SVG Export Plug-In . SVG Version: 6.00 Build 0)  -->
<svg version="1.1" id="Layer_1" xmlns="http://www.w3.org/2000/svg" xmlns:xlink="http://www.w3.org/1999/xlink" x="0px" y="0px"
	 width="800px" height="120px" viewBox="0 0 800 120" style="enable-background:new 0 0 800 120;" xml:space="preserve">
<style type="text/css">
	.st0{fill:url(#SVGID_1_);stroke:#484848;stroke-width:1.44;stroke-linecap:round;stroke-linejoin:round;}
	.st1{fill:url(#SVGID_2_);stroke:#484848;stroke-width:1.44;stroke-linecap:round;stroke-linejoin:round;}
	.st2{fill:url(#SVGID_3_);stroke:#484848;stroke-width:1.44;stroke-linecap:round;stroke-linejoin:round;}
	.st3{fill:url(#SVGID_4_);stroke:#484848;stroke-width:1.44;stroke-linecap:round;stroke-linejoin:round;}
	.st4{fill:url(#SVGID_5_);stroke:#484848;stroke-width:1.44;stroke-linecap:round;stroke-linejoin:round;}
	.st5{fill:url(#SVGID_6_);stroke:#484848;stroke-width:1.44;stroke-linecap:round;stroke-linejoin:round;}
	.st6{fill:url(#SVGID_7_);stroke:#484848;stroke-width:1.44;stroke-linecap:round;stroke-linejoin:round;}
	.st7{fill:url(#SVGID_8_);stroke:#484848;stroke-width:1.44;stroke-linecap:round;stroke-linejoin:round;}
	.st8{fill:url(#SVGID_9_);stroke:#484848;stroke-width:1.44;stroke-linecap:round;stroke-linejoin:round;}
	.st9{fill:url(#SVGID_10_);stroke:#484848;stroke-width:1.44;stroke-linecap:round;stroke-linejoin:round;}
	.st10{fill:url(#SVGID_11_);}
	.st11{fill:url(#SVGID_12_);}
	.st12{fill:url(#SVGID_13_);}
	.st13{fill:#CCCCCC;}
	.st14{fill:url(#SVGID_14_);}
	.st15{fill:url(#SVGID_15_);}
	.st16{fill:none;stroke:#333333;stroke-width:1.44;stroke-linecap:round;stroke-linejoin:round;}
	.st17{fill:url(#SVGID_16_);stroke:#33317A;stroke-width:2.88;stroke-linecap:round;stroke-linejoin:round;}
	.st18{fill:url(#SVGID_17_);}
	.st19{fill:none;stroke:#333333;stroke-linecap:round;stroke-linejoin:round;}
</style>
<linearGradient id="SVGID_1_" gradientUnits="userSpaceOnUse" x1="194.8436" y1="197.0799" x2="250.602" y2="252.838" gradientTransform="matrix(1 0 0 -1 0 286.1599)">
	<stop  offset="0" style="stop-color:#999999"/>
	<stop  offset="0.98" style="stop-color:#F3F3F3"/>
</linearGradient>
<path class="st0" d="M249,37.8c-0.7-1.2-1.8-2.1-3.2-2.5c-24-6.9-39.5-5.8-46.4,3c-2.5,2.8-3.9,5.6-4.4,8.6
	c-0.5,2.8-0.2,5.6,1.1,8.3H196c1.1,1.9,2.5,3.9,4.4,5.5h0.2c1.6,1.2,3.2,2.3,5.1,3.2c1.2,0.7,4.4,1.1,9.3,1.2
	c1.1,0.2,2.8,0.2,5.6,0.2c2.5,0.2,4.4,0.2,5.8,0.2l0,0c4.4,0.2,8.8,0.5,10.2,0.9c1.4,0.5,3.9,3,4.1,4.2c0.2,1.2,0,0,0,0
	c0.4,0.7,0.5,0.9,0.4,2.6c-0.2,1.8-0.9,1.4-1.6,2.3v-0.2c-0.9,0.7-2.1,1.2-3.9,1.8c-2.6,0.5-5.8,1.1-9.5,1.1
	c-3.7,0.2-7.4,0-11.1-0.4c-3.5-0.5-6.7-1.1-9.3-1.8c-1.2-0.4-2.6-0.4-3.9,0.4c-1.2,0.5-2.1,1.6-2.6,3c-0.5,1.2-0.4,2.6,0.4,4.1
	c0.7,1.2,1.8,2.1,3.2,2.5c3.2,1.1,6.9,1.8,11.3,2.3c4.2,0.4,8.5,0.5,12.7,0.5c4.6-0.2,8.5-0.7,11.8-1.4c4.6-1.1,7.8-2.8,9.3-5.1h0.2
	c1.4-1.8,2.5-3.4,3-4.8v-0.2c0.7-1.8,1.1-3.5,1.1-5.3v-0.2c-0.2-1.2,0-3.2-0.7-5.1c-0.2-0.9-0.5-1.4-1.9-4.6
	c-1.4-3-4.8-4.9-10.4-6.2l0,0c-2.8-0.5-6.9-0.9-12-1.1c-1.4-0.2-3.5-0.2-6.2-0.2s-4.4,0-5.5,0c-2.8,0-4.6-0.2-5.3-0.4
	c-1.1-0.5-1.8-0.9-2.5-1.6c-0.7-0.7-1.4-1.4-1.8-2.1v-0.2c-0.4-0.5-0.5-1.1-0.4-1.8c0.4-1.1,0.9-2.3,1.9-3.5
	c5.3-5.1,17.1-5.1,35.4,0.2c1.4,0.4,2.8,0.2,3.9-0.5c1.4-0.7,2.3-1.8,2.5-3.2C249.9,40.4,249.7,39,249,37.8z"/>
<linearGradient id="SVGID_2_" gradientUnits="userSpaceOnUse" x1="446.3236" y1="199.2144" x2="503.1342" y2="256.0254" gradientTransform="matrix(1 0 0 -1 0 286.1599)">
	<stop  offset="0" style="stop-color:#999999"/>
	<stop  offset="0.98" style="stop-color:#F3F3F3"/>
</linearGradient>
<path class="st1" d="M501.5,34.6c-0.7-1.2-1.8-2.1-3.2-2.5c-24-6.7-39.5-5.8-46.4,3c-2.5,2.8-3.9,5.6-4.4,8.6
	c-0.5,2.8-0.2,5.6,1.1,8.3h-0.2c1.1,1.9,2.5,3.9,4.4,5.5h0.2c1.6,1.2,3.2,2.3,5.1,3.2c1.2,0.7,4.4,1.1,9.3,1.2c1.1,0,2.8,0,5.6,0
	c2.5,0.2,4.4,0.2,5.8,0.2h0.2c4.4,0,8.8,0.5,10.2,0.9c1.4,0.5,3.9,3,4.1,4.2c0.2,1.2,0,0,0,0c0.2,0.7,0.5,0.9,0.4,2.6
	c-0.2,1.8-0.9,1.4-1.6,2.3V72c-0.9,0.7-2.1,1.2-3.9,1.8c-2.6,0.5-5.8,1.1-9.5,1.1c-3.7,0.2-7.4,0-11.1-0.4c-3.5-0.5-6.7-1.1-9.3-1.8
	c-1.2-0.4-2.6-0.4-3.9,0.4c-1.2,0.5-2.3,1.6-2.6,3c-0.5,1.2-0.2,2.6,0.4,4.1c0.7,1.2,1.8,2.1,3.2,2.5c3.2,1.1,6.9,1.8,11.3,2.3
	c4.2,0.4,8.5,0.5,12.7,0.5c4.6-0.2,8.5-0.7,11.8-1.4c4.6-1.1,7.8-2.8,9.3-5.1h0.2c1.4-1.8,2.5-3.4,3-4.8V74c0.7-1.8,1.1-3.5,1.1-5.3
	v-0.2c-0.2-1.2,0-3.2-0.7-5.1c-0.2-0.9-0.5-1.4-1.9-4.6c-1.4-3-4.8-4.9-10.4-6.2h-0.2c-2.8-0.5-6.9-0.9-12-1.1c-1.4,0-3.5,0-6.2-0.2
	c-2.6,0-4.4,0-5.5-0.2c-2.8,0-4.6-0.2-5.3-0.4c-1.1-0.5-1.8-0.9-2.6-1.6c-0.7-0.7-1.4-1.4-1.8-2.1V47c-0.4-0.5-0.5-1.1-0.2-1.8
	c0.2-1.1,0.9-2.3,1.9-3.5c5.3-5.1,17.1-5.1,35.4,0.2c1.4,0.4,2.6,0.2,3.9-0.5c1.4-0.7,2.3-1.8,2.6-3.2
	C502.4,37.1,502.3,35.9,501.5,34.6z"/>
<linearGradient id="SVGID_3_" gradientUnits="userSpaceOnUse" x1="254.1101" y1="201.7711" x2="308.3982" y2="256.0594" gradientTransform="matrix(1 0 0 -1 0 286.1599)">
	<stop  offset="0" style="stop-color:#999999"/>
	<stop  offset="0.98" style="stop-color:#F3F3F3"/>
</linearGradient>
<path class="st2" d="M300.9,33.4c-1.1-0.9-2.3-1.4-3.7-1.4h-35.3c-1.4,0-2.6,0.5-3.7,1.4c-1.1,1.1-1.6,2.3-1.6,3.7v43.7
	c0,1.4,0.5,2.6,1.6,3.7c1.1,1.1,2.3,1.6,3.7,1.6h35.3c1.4,0,2.6-0.5,3.7-1.6c0.9-0.9,1.4-2.3,1.4-3.7s-0.5-2.6-1.4-3.7
	c-1.1-0.9-2.3-1.4-3.7-1.4h-30V64.3h22c1.4,0,2.6-0.5,3.7-1.6c0.9-0.9,1.4-2.3,1.4-3.7c0-1.4-0.5-2.6-1.4-3.7
	c-1.1-0.9-2.3-1.4-3.7-1.4h-22V42.4h30c1.4,0,2.6-0.5,3.7-1.6c0.9-0.9,1.4-2.1,1.4-3.7C302.5,35.7,301.9,34.5,300.9,33.4z"/>
<linearGradient id="SVGID_4_" gradientUnits="userSpaceOnUse" x1="305.7823" y1="195.9714" x2="365.5387" y2="255.7276" gradientTransform="matrix(1 0 0 -1 0 286.1599)">
	<stop  offset="0" style="stop-color:#999999"/>
	<stop  offset="0.98" style="stop-color:#F3F3F3"/>
</linearGradient>
<path class="st3" d="M361.7,39.6c-0.2-1.6-1.1-2.8-2.1-3.5c-9.7-6.9-20.3-8.3-30.5-6.5c-4.1,0.9-5.3,0.9-9.7,3
	c-4.4,2.1-7.4,6.2-7.4,6.2c-2.1,2.3-3.2,5.1-4.6,8.8c-1.4,3.7-1.4,5.5-1.6,10.1c-0.2,4.6,0.4,8.8,1.8,12.7c1.2,4.1,3.4,7.6,6,10.4
	l0,0c2.6,3,5.8,5.5,9.7,6.9c3.7,1.6,7.9,2.5,12.3,2.5c10.6,0,18.2-2.5,22.9-7.1c5.5-4.9,7.8-12.2,6.9-22c-0.2-1.6-0.7-2.6-1.6-3.7
	c-1.1-0.9-2.1-1.4-3.5-1.4h-22.9c-1.4,0-2.6,0.5-3.7,1.6c-1.1,1.1-1.6,2.5-1.6,4.1c0,1.6,0.5,3,1.6,4.1c1.1,1.1,2.3,1.8,3.7,1.8H355
	c-0.4,2.8-1.4,5.3-3.2,7.1c-3.4,3-8.8,4.4-16,4.4c-3,0-6-0.5-8.5-1.6l-0.2-0.2c-2.3-0.9-4.2-2.3-5.8-4.2c-1.6-1.8-2.8-4.1-3.7-6.3
	c-0.9-2.6-1.2-5.5-1.1-8.5c0-3.2,0.5-4.9,1.1-7.2c0.5-1.6,1.1-3,2.1-4.1c0,0,1.6-2.5,4.2-3.7c2.6-1.4,4.6-1.8,7.8-2.6h0.2
	c7.8-1.9,15.2-0.4,22.2,4.9c1.2,0.9,2.5,1.1,3.9,0.9c1.4-0.4,2.5-1.1,3.4-2.5C361.7,42.6,362.1,41.2,361.7,39.6z"/>
<linearGradient id="SVGID_5_" gradientUnits="userSpaceOnUse" x1="374.5641" y1="193.6812" x2="433.0602" y2="252.1768" gradientTransform="matrix(1 0 0 -1 0 286.1599)">
	<stop  offset="0" style="stop-color:#999999"/>
	<stop  offset="0.98" style="stop-color:#F3F3F3"/>
</linearGradient>
<path class="st4" d="M428.4,85.8c0.9-1.2,1.2-2.5,1.1-3.9c-5.5-36.5-15.5-54.5-30-53.6c-14.5-0.9-24.5,16.4-29.8,51.8
	c-0.2,1.4,0.2,2.6,1.1,3.9c0.9,1.2,1.9,1.9,3.4,2.1s2.6-0.2,3.9-0.9c1.1-0.9,1.8-1.9,2.1-3.4c0.7-4.4,1.4-8.5,2.1-12.2l0,0h34.2
	c0.9,4.2,1.8,8.8,2.5,13.9c0.2,1.4,0.9,2.5,2.1,3.4c1.1,0.9,2.5,1.2,3.9,0.9C426.3,87.5,427.5,86.8,428.4,85.8z M384.8,59
	c3.9-13,8.8-19.8,14.6-20.1c5.6,0.5,10.6,7.2,14.3,20.1H384.8z"/>
<linearGradient id="SVGID_6_" gradientUnits="userSpaceOnUse" x1="511.6803" y1="192.346" x2="573.1214" y2="253.7868" gradientTransform="matrix(1 0 0 -1 0 286.1599)">
	<stop  offset="0" style="stop-color:#999999"/>
	<stop  offset="0.98" style="stop-color:#F3F3F3"/>
</linearGradient>
<path class="st5" d="M515.8,85.8c1.2-0.9,1.9-1.9,2.1-3.4c0.7-4.4,1.4-8.5,2.1-12.2h34.2c0.9,4.2,1.8,8.8,2.5,13.9
	c0.2,1.4,0.9,2.5,2.1,3.4c1.1,0.9,2.5,1.2,3.9,0.9c1.4-0.2,2.5-0.9,3.4-1.9c0.9-1.2,1.2-2.5,1.1-3.9c-5.5-36.5-15.5-54.5-30-53.6
	c-14.5-0.9-24.3,16.4-29.8,51.8c-0.2,1.4,0.2,2.6,0.9,3.9c0.9,1.2,1.9,1.9,3.5,2.1C513.4,87,514.6,86.6,515.8,85.8z M522.7,59.7
	c3.9-13,8.8-19.8,14.6-20.1c5.8,0.5,10.6,7.2,14.5,20.1H522.7z"/>
<linearGradient id="SVGID_7_" gradientUnits="userSpaceOnUse" x1="553.903" y1="206.0959" x2="611.3453" y2="263.5385" gradientTransform="matrix(1 0 0 -1 0 286.1599)">
	<stop  offset="0" style="stop-color:#999999"/>
	<stop  offset="0.98" style="stop-color:#F3F3F3"/>
</linearGradient>
<path class="st6" d="M612.5,33c-1.1-0.9-2.3-1.4-3.7-1.4h-45.8c-1.4,0-2.8,0.5-3.7,1.4c-1.1,1.1-1.6,2.3-1.6,3.7
	c0,1.4,0.5,2.6,1.6,3.7c1.1,1.1,2.3,1.6,3.7,1.6h17.6v40.4c0,1.4,0.5,2.6,1.6,3.7c1.1,1.1,2.3,1.6,3.7,1.6c1.6,0,2.6-0.5,3.7-1.6
	c1.1-0.9,1.6-2.3,1.6-3.7V42h17.6c1.4,0,2.6-0.5,3.7-1.6c1.1-0.9,1.4-2.3,1.4-3.7C614.1,35.3,613.5,34.1,612.5,33z"/>
<linearGradient id="SVGID_8_" gradientUnits="userSpaceOnUse" x1="614.1767" y1="200.5295" x2="672.2502" y2="258.6026" gradientTransform="matrix(1 0 0 -1 0 286.1599)">
	<stop  offset="0" style="stop-color:#999999"/>
	<stop  offset="0.98" style="stop-color:#F3F3F3"/>
</linearGradient>
<path class="st7" d="M674.2,32c-1.1-1.1-2.3-1.6-3.7-1.6c-1.4,0-2.6,0.5-3.7,1.6c-1.1,0.9-1.6,2.3-1.6,3.7v26.1
	c0,1.9-0.4,3.9-1.1,5.6c-0.7,1.8-1.8,3.4-3.2,4.8c-1.4,1.2-2.8,2.5-4.8,3.2c-1.8,0.7-3.7,1.1-5.6,1.1h-7.8c-1.9,0-3.9-0.4-5.6-1.1
	c-1.8-0.7-3.4-1.8-4.8-3.2c-1.4-1.4-2.5-2.8-3.2-4.6l0,0c-0.7-1.8-1.1-3.7-1.1-5.6V35.7c0-1.4-0.5-2.6-1.4-3.7
	c-1.1-1.1-2.3-1.6-3.7-1.6c-1.4,0-2.8,0.5-3.7,1.6c-1.1,0.9-1.6,2.3-1.6,3.7v26.1c0,3.4,0.7,6.7,1.9,9.9l0,0c1.2,3,3,5.6,5.3,8.1
	c2.3,2.3,4.9,4.1,8.1,5.5c3.2,1.2,6.3,1.9,9.9,1.9h7.8c3.5,0,6.7-0.5,9.9-1.9h-0.2c3-1.2,5.6-3.2,8.1-5.5c2.3-2.3,4.1-4.9,5.5-8.1
	v0.2c1.2-3.2,1.9-6.3,1.9-9.9V35.7C675.8,34.3,675.2,32.9,674.2,32z"/>
<linearGradient id="SVGID_9_" gradientUnits="userSpaceOnUse" x1="680.0168" y1="198.238" x2="738.5093" y2="256.7307" gradientTransform="matrix(1 0 0 -1 0 286.1599)">
	<stop  offset="0" style="stop-color:#999999"/>
	<stop  offset="0.98" style="stop-color:#F3F3F3"/>
</linearGradient>
<path class="st8" d="M681.2,32c-0.9,0.9-1.4,2.1-1.4,3.5v45.3c0,1.4,0.5,2.6,1.6,3.7c1.1,1.1,2.5,1.6,4.1,1.6s2.8-0.5,3.9-1.6
	c1.1-0.9,1.8-2.3,1.8-3.7V40.4c12.2-0.7,21.3,0,27.9,1.8c4.9,1.4,7.4,3.9,7.8,7.2c0.2,2.6-1.1,4.6-3.4,5.8
	c-3.7,1.6-9.3,1.9-16.6,1.2c-1.2-0.2-2.5,0.2-3.5,0.7c-1.1,0.5-1.9,1.4-2.3,2.6c-0.5,1.1-0.5,2.1-0.2,3.4c0.4,1.1,1.1,1.9,2.1,2.6
	l28,19.2c1.2,0.9,2.6,1.2,4.1,0.9c1.6-0.2,2.8-0.9,3.7-2.1c0.9-1.1,1.2-2.5,1.1-3.9c-0.4-1.4-1.1-2.6-2.3-3.5l-14.8-10.1
	c2.1-0.5,4.1-1.1,5.6-1.9c6.3-3,9.5-7.9,9.7-15c0.4-8.3-4.9-14.1-15.5-17.3c-8.3-2.6-20.8-3.2-37.4-1.9
	C683.5,30.4,682.3,30.9,681.2,32z"/>
<linearGradient id="SVGID_10_" gradientUnits="userSpaceOnUse" x1="743.9073" y1="198.7372" x2="800.7207" y2="255.5506" gradientTransform="matrix(1 0 0 -1 0 286.1599)">
	<stop  offset="0" style="stop-color:#999999"/>
	<stop  offset="0.98" style="stop-color:#F3F3F3"/>
</linearGradient>
<path class="st9" d="M746.3,32.9c-0.7,0.9-0.9,1.8-0.9,3v45.5c0,1.4,0.5,2.6,1.6,3.7c0.9,1.1,2.3,1.6,3.7,1.6c1.4,0,2.6-0.5,3.7-1.6
	c0.9-0.9,1.4-2.3,1.4-3.7V48.9l34.9,36.1c0.9,0.7,1.6,1.2,2.8,1.6c1.1,0.2,1.9,0,3-0.2c1.1-0.5,1.8-1.1,2.5-1.9s0.9-1.8,0.9-2.8
	V35.9c0-1.4-0.5-2.6-1.6-3.7c-1.1-0.9-2.3-1.4-3.7-1.4c-1.4,0-2.6,0.5-3.7,1.4c-1.1,1.1-1.6,2.3-1.6,3.7v32.4l-34.9-36.1
	c-0.9-0.7-1.6-1.2-2.8-1.4c-1.1-0.2-2.1,0-3,0.4C747.7,31.5,746.8,32,746.3,32.9z"/>
<g>
	
		<radialGradient id="SVGID_11_" cx="141.9182" cy="231.596" r="23.3146" gradientTransform="matrix(1 0 0 -1 0 286.1599)" gradientUnits="userSpaceOnUse">
		<stop  offset="0.43" style="stop-color:#FFFFFF"/>
		<stop  offset="0.64" style="stop-color:#7A7A7A"/>
		<stop  offset="0.99" style="stop-color:#000000"/>
	</radialGradient>
	<path class="st10" d="M151.9,47.7c1.6-0.2,2.8-0.2,3.7,0v0.2c2.3,1.6,3.7,3,3.7,4.8c-0.9,2.6-3.5,5.8-7.9,9.2
		c-5.1,3.9-12.3,7.9-21.2,12c-4.1,1.8-8.1,3.5-12.5,5.3c-5.1,1.9-4.2,15.5-0.5,14.1c6.7-2.5,12.9-4.9,18.5-7.6
		c9.7-4.6,17.6-9,23.6-13.6c7.6-5.8,12-11.3,12.7-16.8c1.4-5.1,0.2-9.7-3.7-13.8C166.7,39.7,151.2,47.7,151.9,47.7z"/>
	
		<radialGradient id="SVGID_12_" cx="29.118" cy="197" r="24.0647" gradientTransform="matrix(1 0 0 -1 0 286.1599)" gradientUnits="userSpaceOnUse">
		<stop  offset="0" style="stop-color:#FFFFFF"/>
		<stop  offset="1" style="stop-color:#000000"/>
	</radialGradient>
	<path class="st11" d="M64,94.2c-3.9,0.7-7.6,1.4-11.1,1.9l0.2-0.2c-7.4,1.1-13.8,1.6-19.2,1.8h-0.2c-4.8,0-8.5-0.4-10.8-1.2
		c-1.6-0.7-3.2-0.5-4.9,0.2c-1.8,0.7-2.8,1.9-3.5,3.5c-0.7,1.8-0.5,3.4,0.2,4.9c0.7,1.6,1.9,2.8,3.5,3.5c3.5,1.2,8.6,1.9,15.5,1.9
		c6-0.2,12.9-0.7,21-1.8h0.2c4.1-0.5,8.1-1.2,12.3-2.1C71.3,106,68.1,93.3,64,94.2z"/>
	
		<radialGradient id="SVGID_13_" cx="41.0255" cy="247.6343" r="55.1382" gradientTransform="matrix(1 0 0 -1 0 286.1599)" gradientUnits="userSpaceOnUse">
		<stop  offset="0.8128" style="stop-color:#FFFFFF"/>
		<stop  offset="1" style="stop-color:#575757"/>
	</radialGradient>
	<path class="st12" d="M63.2,24.4c-3.7,1.2-7.2,2.5-10.8,3.7c-8.1,3.2-15.3,6.3-21.9,9.7h0.2c-7.1,3.5-12.7,7.1-17.3,10.8v-0.2
		C8,52.6,4.3,56.7,2.3,60.5v0.2c-3,5.5-3.2,10.6-0.7,15.3c1.6,4.6,6.2,7.2,14.1,7.6c4.6,0.4,10.8-0.4,18.5-1.8
		c3.9-0.9,8.5-1.9,13.4-3.4c3-0.9-0.5-13.4-3.5-12.5c-4.6,1.2-8.8,2.3-12.5,3c-6.3,1.2-11.3,1.8-15.2,1.6c-1.6,0-2.6-0.2-3-0.2
		l-0.2-0.2c-0.4-1.1-0.2-2.3,0.5-3.7v-0.2c1.4-2.5,3.9-5.1,7.6-7.9c4.1-3.2,9-6.3,15-9.3c6-3.2,12.9-6.2,20.5-9.2v0.2
		c2.1-0.9,4.4-1.6,6.5-2.3C69.2,36.2,67.8,22.8,63.2,24.4z"/>
	<path class="st13" d="M117.1,25.1c4.2-0.5,8.3-0.9,12.2-1.1c7.8-0.7,14.8-0.5,21,0.2c1.8,0.2,3.4-0.4,4.8-1.4
		c1.4-1.2,2.1-2.6,2.5-4.4c0.2-1.8-0.4-3.5-1.4-4.8c-1.2-1.4-2.6-2.3-4.4-2.3c-6.9-0.7-14.8-0.7-23.3-0.2
		c-5.5,0.4-11.1,1.1-17.1,1.9C108.7,13.3,113.4,25.6,117.1,25.1z"/>
	
		<radialGradient id="SVGID_14_" cx="147.5619" cy="286.1153" r="30.8323" gradientTransform="matrix(1 0 0 -1 0 286.1599)" gradientUnits="userSpaceOnUse">
		<stop  offset="0" style="stop-color:#FFFFFF"/>
		<stop  offset="1" style="stop-color:#000000"/>
	</radialGradient>
	<path class="st14" d="M117.1,25.1c4.2-0.5,8.3-0.9,12.2-1.1c7.8-0.7,14.8-0.5,21,0.2c1.8,0.2,3.4-0.4,4.8-1.4
		c1.4-1.2,2.1-2.6,2.5-4.4c0.2-1.8-0.4-3.5-1.4-4.8c-1.2-1.4-2.6-2.3-4.4-2.3c-6.9-0.7-14.8-0.7-23.3-0.2
		c-5.5,0.4-11.1,1.1-17.1,1.9C108.7,13.3,113.4,25.6,117.1,25.1z"/>
	
		<linearGradient id="SVGID_15_" gradientUnits="userSpaceOnUse" x1="32.9492" y1="240.078" x2="23.5499" y2="247.2213" gradientTransform="matrix(1 0 0 -1 0 286.1599)">
		<stop  offset="0" style="stop-color:#000000"/>
		<stop  offset="1" style="stop-color:#FFFFFF"/>
	</linearGradient>
	<path class="st15" d="M9,64.3c0,7.1,4.4,6.5,4.4,6.5l0,0l-0.2-0.2c-0.4-1.1-0.2-2.3,0.5-3.7v-0.2c1.4-2.5,3.9-5.1,7.6-7.9
		c4.1-3.2,9-6.3,15-9.3c6-3.2,12.9-6.2,20.5-9.2v0.2c2.1-0.9,4.4-1.6,6.5-2.3c2.5-0.9,3.5-3.9,3.5-6.9c-2.8-0.4-5.8-0.5-8.8-0.5
		c-6.5,0-12.5,0.9-18.2,2.6c-3.4,1.6-6.5,3-9.7,4.6h0.2c-2.1,1.1-4.2,2.3-6.2,3.4C16.8,47.1,9,55.3,9,64.3z"/>
	<path class="st16" d="M157.5,18.4c0.2-1.8-0.4-3.5-1.4-4.8c-1.2-1.4-2.6-2.3-4.4-2.3c-6.9-0.7-14.8-0.7-23.3-0.2
		c-7.9,0.5-16.4,1.6-25.4,3.2c-8.6,1.6-17.3,3.5-25.9,6s-16.9,5.1-24.7,7.9c-8.1,3.2-15.3,6.3-21.9,9.7h0.2
		C23.7,41.5,18,45,13.4,48.7v-0.2C8,52.8,4.3,56.8,2.3,60.7v0.2c-3,5.5-3.2,10.6-0.7,15.3c1.6,4.6,6.2,6.9,13.9,7.2
		c4.6,0.4,10.8,0,18.5-1.6c6.3-1.2,13.9-3.4,23.1-6c6.7-2.1,15.3-4.8,25.7-8.3l25.7-8.5c9.3-3.2,17.1-5.5,23.1-7.2
		c7.2-2.1,13-3.5,17.3-4.1c3-0.4,5.1-0.5,6.2-0.4v0.2c2.3,1.6,3.7,3,3.7,4.8c-0.9,2.6-3.5,5.8-7.9,9.2c-5.1,3.9-12.3,7.9-21.2,12
		c-8.6,3.9-18.2,7.4-28.6,10.9h-0.2c-8.1,2.6-16.4,4.9-25,6.9c-8.3,1.9-16.2,3.4-23.6,4.6l0.2-0.2c-7.4,1.1-13.8,1.6-19.2,1.8h-0.2
		c-4.8,0-8.5-0.4-10.8-1.2c-1.6-0.7-3.2-0.5-4.9,0.2c-1.8,0.7-2.8,1.9-3.5,3.5c-0.7,1.8-0.5,3.4,0.2,4.9s1.9,2.8,3.5,3.5
		c3.5,1.2,8.6,1.9,15.5,1.9c6-0.2,12.9-0.7,21-1.8h0.2c7.8-1.1,16-2.6,24.5-4.6H79c8.8-2.1,17.5-4.6,25.9-7.2
		c11.1-3.5,21.2-7.4,30.2-11.5c9.7-4.6,17.6-9,23.6-13.6c7.6-5.8,12-11.3,12.7-16.8c1.9-7.2-1.2-13.2-9.5-18.5
		c-2.6-2.1-7.4-2.6-14.8-1.6h-0.2c-4.8,0.7-11.1,2.1-19,4.4c-6,1.8-13.9,4.1-23.6,7.4l-25.7,8.5c-10.2,3.4-18.7,6-25.2,7.9
		c-8.8,2.6-16,4.6-22,5.8c-6.3,1.2-11.3,1.8-15.2,1.6c-1.6,0-2.6-0.2-3-0.2l-0.2-0.2c-0.4-1.1-0.2-2.3,0.5-3.7v-0.2
		c1.4-2.5,3.9-5.1,7.6-7.9c4.1-3.2,9-6.3,15-9.3c6-3.2,12.9-6.2,20.5-9.2v0.2c7.4-2.8,15.3-5.5,23.6-7.8c8.3-2.5,16.6-4.4,24.9-5.8
		c8.3-1.6,16.4-2.6,24-3c7.8-0.7,14.8-0.5,21,0.2c1.8,0.2,3.4-0.4,4.8-1.4C156.6,21.4,157.3,20,157.5,18.4z"/>
	
		<radialGradient id="SVGID_16_" cx="95.7035" cy="249.7997" r="50.009" gradientTransform="matrix(1 0 0 -1 0 286.1599)" gradientUnits="userSpaceOnUse">
		<stop  offset="4.000000e-02" style="stop-color:#FFFFFF"/>
		<stop  offset="4.000000e-02" style="stop-color:#FFFFFF"/>
		<stop  offset="0.23" style="stop-color:#6E93E1"/>
		<stop  offset="1" style="stop-color:#363499"/>
	</radialGradient>
	<circle class="st17" cx="86.6" cy="60" r="55.2"/>
	
		<linearGradient id="SVGID_17_" gradientUnits="userSpaceOnUse" x1="92.5072" y1="220.5575" x2="88.7428" y2="232.854" gradientTransform="matrix(1 0 0 -1 0 286.1599)">
		<stop  offset="0" style="stop-color:#000000"/>
		<stop  offset="0.9893" style="stop-color:#FFFFFF"/>
	</linearGradient>
	<path class="st18" d="M31.3,69.2c-0.7,0.2-17.3,3.7-20.1,1.1c-0.9-0.9,1.8,1.2,4.4,4.6c0.4,0.5,0,1.2-0.4,2.1
		c-0.2,0.2-0.2,0.4-0.4,0.5c0,0.2-0.2,0.5-0.2,0.7c0,0.4-0.2,0.5-0.4,0.9c-0.2,0.9-0.7,1.8-0.9,2.3c0,0.2,0.4,0.4,0.4,0.7
		c0,0.2-0.4,0.2-0.4,0.4c0,0.2-0.5,0.2-0.4,0.4v0.2c0.4,0,1.1,0.2,1.2,0.2c0.2,0,1.6,0.2,3.7,0.2s4.8,0,7.1-0.2
		c1.4-0.2,2.8-0.4,4.2-0.5c1.8-0.4,3.5-0.5,4.6-0.7c1.1-0.2,1.6,0,1.8,0c6-1.2,13.2-3.2,21.7-5.6c6.7-2.1,15.3-4.8,25.7-8.3
		l25.7-8.5c5.1-1.8,9.9-3.2,13.9-4.6c3.4-1.1,6.3-1.9,9-2.6c3.4-1.1,6.2-1.8,9-2.5c3.2-0.7,6-1.4,8.5-1.8c3-0.4,5.1-0.5,6.2-0.4v0.2
		c0.9,0.5,4.9,0.2,6.9,3.2c3.2,4.9,4.8,13.8,6.2,12c1.9-2.6,3-5.1,3.4-7.6c1.9-7.2-1.2-12.9-9.5-18.2c-2.6-2.1-7.4-2.6-14.8-1.6
		h-0.2c-2.8,0.5-6.3,1.2-10.4,2.1c-2.6,0.7-5.5,1.1-8.6,1.9c-3,0.9-6.5,1.9-10.4,3.2c-3.9,1.2-8.3,2.6-13.2,4.2l-25.7,8.5
		c-7.2,2.3-13.6,4.4-19,6.2L31.3,69.2z"/>
	<path class="st19" d="M137.9,36.9c-2.6,0.7-6.3,1.8-9.3,2.6c-6,1.8-13.9,4.1-23.6,7.4l-25.7,8.5c-7.8,2.6-14.5,4.6-20.1,6.3
		c-2.6,0.5-4.4,0.9-5.3,1.2c-8.6,2.5-29.4,8.6-37.7,7.8"/>
	<path class="st19" d="M34.2,81.9c6-1.2,14.8-3.5,23.3-6c6.7-2.1,15.3-4.8,25.7-8.3l25.7-8.5c9.3-3.2,17.1-5.5,23.1-7.2
		c3.4-1.1,7.1-1.9,9.7-2.6"/>
</g>
</svg>
