<?xml version="1.0" encoding="UTF-8"?>
<!-- Generator: Adobe Illustrator 23.0.1, SVG Export Plug-In . SVG Version: 6.00 Build 0)  -->
<svg version="1.1" id="svg8087" xmlns:cc="http://creativecommons.org/ns#" xmlns:dc="http://purl.org/dc/elements/1.1/" xmlns:inkscape="http://www.inkscape.org/namespaces/inkscape" xmlns:rdf="http://www.w3.org/1999/02/22-rdf-syntax-ns#" xmlns:sodipodi="http://sodipodi.sourceforge.net/DTD/sodipodi-0.dtd" xmlns:svg="http://www.w3.org/2000/svg" xmlns="http://www.w3.org/2000/svg" xmlns:xlink="http://www.w3.org/1999/xlink" x="0px" y="0px" viewBox="0 0 328.2 144.5" style="enable-background:new 0 0 328.2 144.5;" xml:space="preserve">
<style type="text/css">
	.st0{fill:#939598;}
</style>
<sodipodi:namedview bordercolor="#666666" borderopacity="1.0" id="base" inkscape:current-layer="layer1" inkscape:cx="756.05259" inkscape:cy="196.36724" inkscape:document-units="px" inkscape:pageopacity="0.0" inkscape:pageshadow="2" inkscape:window-height="706" inkscape:window-maximized="1" inkscape:window-width="1360" inkscape:window-x="-8" inkscape:window-y="-8" inkscape:zoom="0.35" pagecolor="#ffffff" showgrid="false" units="px">
	</sodipodi:namedview>
<g id="layer1" transform="translate(0,-249.67688)" inkscape:groupmode="layer" inkscape:label="Layer 1">
	<g id="g8710" transform="matrix(1.252929,0,0,1.252929,-89.517079,244.66515)">
		<path id="path8700" inkscape:connector-curvature="0" class="st0" d="M237.8,17.1c0,7.2,6.1,13.1,13.6,13.1    c7.8,0,13.9-5.8,13.9-13.1c0-7.4-6.1-13.1-13.9-13.1C243.9,4,237.8,9.9,237.8,17.1"/>
		<path id="path8702" inkscape:connector-curvature="0" class="st0" d="M240,118.5h23.2V43.4H240V118.5z"/>
		<path id="path8704" inkscape:connector-curvature="0" class="st0" d="M285,17.1c0,7.2,6.1,13.1,13.6,13.1    c7.8,0,13.9-5.8,13.9-13.1c0-7.4-6.1-13.1-13.9-13.1C291.1,4,285,9.9,285,17.1"/>
		<path id="path8706" inkscape:connector-curvature="0" class="st0" d="M287.2,118.5h23.2V43.4h-23.2V118.5z"/>
		<path id="path8708" inkscape:connector-curvature="0" class="st0" d="M203.1,10.3l-20.4,79.8c0,0-15.6-59.9-18.1-68.4    c-2.5-8.5-7.8-12.2-15.1-12.2c-7.4,0-12.6,3.7-15.1,12.2c-2.5,8.5-18.1,68.4-18.1,68.4L95.9,10.3H71.4c0,0,23.5,85.1,26.7,95    c2.5,7.7,8.4,14,17.1,14c10,0,14.7-7.3,16.8-14c2.1-6.7,17.4-62.9,17.4-62.9s15.3,56.2,17.4,62.9c2.2,6.7,6.9,14,16.8,14    c8.7,0,14.7-6.3,17.2-14c3.2-9.9,26.7-95,26.7-95L203.1,10.3z"/>
	</g>
</g>
<g>
	<path class="st0" d="M316.4,132.5v1.9h-3.3v9h-2.3v-9h-3.3v-1.9H316.4z"/>
	<path class="st0" d="M324.9,132.5h3.3v10.9H326V136c0-0.2,0-0.5,0-0.9s0-0.7,0-0.9l-2.1,9.2h-2.2l-2.1-9.2c0,0.2,0,0.5,0,0.9   s0,0.7,0,0.9v7.4h-2.1v-10.9h3.3l2,8.6L324.9,132.5z"/>
</g>
</svg>